<?xml version="1.0" encoding="utf-8"?>
<svg version="1.1" id="Layer_1" xmlns="http://www.w3.org/2000/svg" xmlns:xlink="http://www.w3.org/1999/xlink"
	 viewBox="872 397 246 246" xml:space="preserve">
<style type="text/css">
	.st0{fill:none;stroke:#000000;stroke-width:6;stroke-miterlimit:10;}
	.st1{fill:none;stroke:#000000;stroke-width:2;stroke-miterlimit:10;}
	.st2{fill:none;stroke:#231F20;stroke-width:2;stroke-miterlimit:10;}
	.st3{fill:#231F20;}
</style>
<path class="st0" d="M1106.5,522.2c0,62.3-50.5,112.8-112.8,112.8S881,584.5,881,522.2c0-44,27.9-74.5,32.2-79
	c4.1-4.2,35.2-34.9,80.5-33.8C1046.7,410.8,1106.5,455.2,1106.5,522.2z"/>
<path class="st1" d="M913,440c-4-0.3-12.9-0.5-21,5c-9,6.1-11.8,15.7-13,20c-7.5,26.2,13.1,76.9,55,107c11.5,8.3,34,21.7,68,26"/>
<path class="st2" d="M920,496c-26.9,6.4-45.7,30.8-45,58c0.7,26.1,19.2,48.9,45,55"/>
<path class="st2" d="M932,544c-0.5,7.5-0.3,20,5,34c3.2,8.6,7.4,15.3,11,20"/>
<path class="st2" d="M1061,469c-7.1,7.6-18.6,18.2-35,27c-15.6,8.4-30,12.2-40,14"/>
<path class="st2" d="M976,445c6.8,0.5,46.7,4,73,38c16.2,21,19.3,43.2,20,53"/>
<path class="st2" d="M1065,434c0.1-0.7,1.7-13.4-5-18c-6.7-4.6-21.3-0.8-30,14"/>
<path class="st2" d="M1012,604c2.7,6.8,9.3,20.6,24,29c5.6,3.2,15.3,8.7,25,5c7.4-2.8,10.6-9.2,11-10c4.7-9.6-0.5-19.1-1-20"/>
<circle class="st3" cx="927" cy="494" r="8"/>
<circle class="st3" cx="933" cy="537" r="8"/>
<circle class="st3" cx="951" cy="604" r="8"/>
<circle class="st3" cx="1008" cy="598" r="8"/>
<circle class="st3" cx="1069" cy="544" r="8"/>
<circle class="st3" cx="979" cy="511" r="8"/>
<circle class="st3" cx="969" cy="445" r="8"/>
<circle class="st3" cx="1065" cy="464" r="8"/>
<circle class="st3" cx="1028" cy="437" r="8"/>
</svg>
